name rise49.8558peak67.6521fall70.3087.mot
datacolumns 19
datarows 24
range 17.82493700000000 17.86326400000000
endheader
time	ground_force1_vx	ground_force1_vy	ground_force1_vz	ground_force1_px	ground_force1_py	ground_force1_pz	ground_force2_vx	ground_force2_vy	ground_force2_vz	ground_force2_px	ground_force2_py	ground_force2_pz	ground_torque1_x	ground_torque1_y	ground_torque1_z	ground_torque2_x	ground_torque2_y	ground_torque2_z	
17.82493700000000	-7.46444400000000	707.77284999999995	46.61269800000000	0.24747100000000	0.00000000000000	0.11758900000000	0.00000000000000	0.00000000000000	0.00000000000000	0.00000000000000	0.00000000000000	0.00000000000000	0.00000000000000	23.77421000000000	0.00000000000000	0.00000000000000	0.00000000000000	0.00000000000000	
17.82660100000000	-7.77021500000000	707.91733899999997	46.70060300000000	0.24664900000000	0.00000000000000	0.11758500000000	0.00000000000000	0.00000000000000	0.00000000000000	0.00000000000000	0.00000000000000	0.00000000000000	0.00000000000000	23.84153000000000	0.00000000000000	0.00000000000000	0.00000000000000	0.00000000000000	
17.82826200000000	-8.07079900000000	708.08789100000001	46.79329300000000	0.24586100000000	0.00000000000000	0.11757800000000	0.00000000000000	0.00000000000000	0.00000000000000	0.00000000000000	0.00000000000000	0.00000000000000	0.00000000000000	23.91255000000000	0.00000000000000	0.00000000000000	0.00000000000000	0.00000000000000	
17.82993400000000	-8.36644400000000	708.28298199999995	46.89025500000000	0.24510600000000	0.00000000000000	0.11756700000000	0.00000000000000	0.00000000000000	0.00000000000000	0.00000000000000	0.00000000000000	0.00000000000000	0.00000000000000	23.98699200000000	0.00000000000000	0.00000000000000	0.00000000000000	0.00000000000000	
17.83159900000000	-8.65741700000000	708.50110800000004	46.99098900000000	0.24438200000000	0.00000000000000	0.11755400000000	0.00000000000000	0.00000000000000	0.00000000000000	0.00000000000000	0.00000000000000	0.00000000000000	0.00000000000000	24.06457900000000	0.00000000000000	0.00000000000000	0.00000000000000	0.00000000000000	
17.83326600000000	-8.94399600000000	708.74079900000004	47.09500400000000	0.24368900000000	0.00000000000000	0.11753800000000	0.00000000000000	0.00000000000000	0.00000000000000	0.00000000000000	0.00000000000000	0.00000000000000	0.00000000000000	24.14504300000000	0.00000000000000	0.00000000000000	0.00000000000000	0.00000000000000	
17.83493700000000	-9.22647600000000	709.00062700000001	47.20182600000000	0.24302400000000	0.00000000000000	0.11751800000000	0.00000000000000	0.00000000000000	0.00000000000000	0.00000000000000	0.00000000000000	0.00000000000000	0.00000000000000	24.22812000000000	0.00000000000000	0.00000000000000	0.00000000000000	0.00000000000000	
17.83660000000000	-9.50516300000000	709.27921100000003	47.31099100000000	0.24238800000000	0.00000000000000	0.11749500000000	0.00000000000000	0.00000000000000	0.00000000000000	0.00000000000000	0.00000000000000	0.00000000000000	0.00000000000000	24.31355200000000	0.00000000000000	0.00000000000000	0.00000000000000	0.00000000000000	
17.83826500000000	-9.78037700000000	709.57523400000002	47.42205500000000	0.24177800000000	0.00000000000000	0.11746900000000	0.00000000000000	0.00000000000000	0.00000000000000	0.00000000000000	0.00000000000000	0.00000000000000	0.00000000000000	24.40109100000000	0.00000000000000	0.00000000000000	0.00000000000000	0.00000000000000	
17.83993100000000	-10.05245300000000	709.88744399999996	47.53458800000000	0.24119300000000	0.00000000000000	0.11744000000000	0.00000000000000	0.00000000000000	0.00000000000000	0.00000000000000	0.00000000000000	0.00000000000000	0.00000000000000	24.49049300000000	0.00000000000000	0.00000000000000	0.00000000000000	0.00000000000000	
17.84160100000000	-10.32173500000000	710.21466899999996	47.64817800000000	0.24063100000000	0.00000000000000	0.11740700000000	0.00000000000000	0.00000000000000	0.00000000000000	0.00000000000000	0.00000000000000	0.00000000000000	0.00000000000000	24.58152400000000	0.00000000000000	0.00000000000000	0.00000000000000	0.00000000000000	
17.84326900000000	-10.58857900000000	710.55581600000005	47.76243300000000	0.24009100000000	0.00000000000000	0.11737200000000	0.00000000000000	0.00000000000000	0.00000000000000	0.00000000000000	0.00000000000000	0.00000000000000	0.00000000000000	24.67396000000000	0.00000000000000	0.00000000000000	0.00000000000000	0.00000000000000	
17.84493300000000	-10.85335000000000	710.90989000000002	47.87697800000000	0.23956900000000	0.00000000000000	0.11733300000000	0.00000000000000	0.00000000000000	0.00000000000000	0.00000000000000	0.00000000000000	0.00000000000000	0.00000000000000	24.76758400000000	0.00000000000000	0.00000000000000	0.00000000000000	0.00000000000000	
17.84659800000000	-11.11642400000000	711.27598799999998	47.99146200000000	0.23906600000000	0.00000000000000	0.11729100000000	0.00000000000000	0.00000000000000	0.00000000000000	0.00000000000000	0.00000000000000	0.00000000000000	0.00000000000000	24.86218800000000	0.00000000000000	0.00000000000000	0.00000000000000	0.00000000000000	
17.84826300000000	-11.37818200000000	711.65331700000002	48.10555200000000	0.23857700000000	0.00000000000000	0.11724600000000	0.00000000000000	0.00000000000000	0.00000000000000	0.00000000000000	0.00000000000000	0.00000000000000	0.00000000000000	24.95757600000000	0.00000000000000	0.00000000000000	0.00000000000000	0.00000000000000	
17.84993300000000	-11.63901600000000	712.04118900000003	48.21893900000000	0.23810200000000	0.00000000000000	0.11719800000000	0.00000000000000	0.00000000000000	0.00000000000000	0.00000000000000	0.00000000000000	0.00000000000000	0.00000000000000	25.05356000000000	0.00000000000000	0.00000000000000	0.00000000000000	0.00000000000000	
17.85160400000000	-11.89932000000000	712.43903399999999	48.33133500000000	0.23763900000000	0.00000000000000	0.11714700000000	0.00000000000000	0.00000000000000	0.00000000000000	0.00000000000000	0.00000000000000	0.00000000000000	0.00000000000000	25.14996400000000	0.00000000000000	0.00000000000000	0.00000000000000	0.00000000000000	
17.85326700000000	-12.15949200000000	712.84639900000002	48.44247700000000	0.23718500000000	0.00000000000000	0.11709400000000	0.00000000000000	0.00000000000000	0.00000000000000	0.00000000000000	0.00000000000000	0.00000000000000	0.00000000000000	25.24662100000000	0.00000000000000	0.00000000000000	0.00000000000000	0.00000000000000	
17.85493400000000	-12.41993500000000	713.26295400000004	48.55212400000000	0.23673700000000	0.00000000000000	0.11703700000000	0.00000000000000	0.00000000000000	0.00000000000000	0.00000000000000	0.00000000000000	0.00000000000000	0.00000000000000	25.34337700000000	0.00000000000000	0.00000000000000	0.00000000000000	0.00000000000000	
17.85660100000000	-12.68105200000000	713.68849399999999	48.66006100000000	0.23629500000000	0.00000000000000	0.11697800000000	0.00000000000000	0.00000000000000	0.00000000000000	0.00000000000000	0.00000000000000	0.00000000000000	0.00000000000000	25.44008800000000	0.00000000000000	0.00000000000000	0.00000000000000	0.00000000000000	
17.85826900000000	-12.94324500000000	714.12293899999997	48.76609800000000	0.23585500000000	0.00000000000000	0.11691600000000	0.00000000000000	0.00000000000000	0.00000000000000	0.00000000000000	0.00000000000000	0.00000000000000	0.00000000000000	25.53662100000000	0.00000000000000	0.00000000000000	0.00000000000000	0.00000000000000	
17.85993700000000	-13.20691700000000	714.56633799999997	48.87006900000000	0.23541700000000	0.00000000000000	0.11685200000000	0.00000000000000	0.00000000000000	0.00000000000000	0.00000000000000	0.00000000000000	0.00000000000000	0.00000000000000	25.63285500000000	0.00000000000000	0.00000000000000	0.00000000000000	0.00000000000000	
17.86160300000000	-13.47246400000000	715.01886800000000	48.97183400000000	0.23497600000000	0.00000000000000	0.11678500000000	0.00000000000000	0.00000000000000	0.00000000000000	0.00000000000000	0.00000000000000	0.00000000000000	0.00000000000000	25.72868400000000	0.00000000000000	0.00000000000000	0.00000000000000	0.00000000000000	
17.86326400000000	-13.74028000000000	715.48083299999996	49.07128000000000	0.23453200000000	0.00000000000000	0.11671600000000	0.00000000000000	0.00000000000000	0.00000000000000	0.00000000000000	0.00000000000000	0.00000000000000	0.00000000000000	25.82400900000000	0.00000000000000	0.00000000000000	0.00000000000000	0.00000000000000	
